<svg width="20" height="20" viewBox="0 0 20 20" fill="none" xmlns="http://www.w3.org/2000/svg">
<path d="M17.5 13.4084V9.24841C17.5 5.67341 17.5 3.88758 16.4017 2.77675C15.3033 1.66675 13.535 1.66675 10 1.66675C6.465 1.66675 4.69667 1.66675 3.59833 2.77675C2.5 3.88675 2.5 5.67508 2.5 9.24841V13.4092C2.5 15.9892 2.5 17.2801 3.11167 17.8434C3.40333 18.1126 3.77167 18.2817 4.16417 18.3267C4.98667 18.4209 5.9475 17.5709 7.86833 15.8717C8.71833 15.1209 9.1425 14.7451 9.63333 14.6467C9.875 14.5967 10.125 14.5967 10.3667 14.6467C10.8583 14.7451 11.2825 15.1209 12.1317 15.8717C14.0525 17.5709 15.0133 18.4209 15.8358 18.3259C16.2275 18.2817 16.5967 18.1126 16.8883 17.8434C17.5 17.2801 17.5 15.9892 17.5 13.4084Z" fill="#38AF7F" stroke="#38AF7F" stroke-width="1.25"/>
<path d="M12.5 5H7.5" stroke="white" stroke-width="1.25" stroke-linecap="round"/>
</svg>
