<svg width="13" height="13" viewBox="0 0 13 13" fill="none" xmlns="http://www.w3.org/2000/svg">
<path d="M11.6667 6.33333H5.33333M10.3333 8.33333L12.3333 6.33333L10.3333 4.33333M7 3V2.33333C7 1.97971 6.85952 1.64057 6.60948 1.39052C6.35943 1.14048 6.02029 1 5.66667 1H2.33333C1.97971 1 1.64057 1.14048 1.39052 1.39052C1.14048 1.64057 1 1.97971 1 2.33333V10.3333C1 10.687 1.14048 11.0261 1.39052 11.2761C1.64057 11.5262 1.97971 11.6667 2.33333 11.6667H5.66667C6.02029 11.6667 6.35943 11.5262 6.60948 11.2761C6.85952 11.0261 7 10.687 7 10.3333V9.66667" stroke="black" stroke-linecap="round" stroke-linejoin="round"/>
</svg>
