<svg width="12" height="14" viewBox="0 0 12 14" fill="none" xmlns="http://www.w3.org/2000/svg">
<path d="M9.5 3.5C9.5 4.42826 9.13125 5.3185 8.47487 5.97487C7.8185 6.63125 6.92826 7 6 7C5.07174 7 4.1815 6.63125 3.52513 5.97487C2.86875 5.3185 2.5 4.42826 2.5 3.5C2.5 2.57174 2.86875 1.6815 3.52513 1.02513C4.1815 0.368749 5.07174 0 6 0C6.92826 0 7.8185 0.368749 8.47487 1.02513C9.13125 1.6815 9.5 2.57174 9.5 3.5ZM8.5 3.5C8.5 2.83696 8.23661 2.20107 7.76777 1.73223C7.29893 1.26339 6.66304 1 6 1C5.33696 1 4.70107 1.26339 4.23223 1.73223C3.76339 2.20107 3.5 2.83696 3.5 3.5C3.5 4.16304 3.76339 4.79893 4.23223 5.26777C4.70107 5.73661 5.33696 6 6 6C6.66304 6 7.29893 5.73661 7.76777 5.26777C8.23661 4.79893 8.5 4.16304 8.5 3.5ZM1.75 8C1.28587 8 0.840752 8.18437 0.512563 8.51256C0.184375 8.84075 0 9.28587 0 9.75V10C0 11.1965 0.7615 12.2085 1.8425 12.8965C2.9295 13.5885 4.401 14 6 14C7.599 14 9.07 13.5885 10.1575 12.8965C11.2385 12.2085 12 11.1965 12 10V9.75C12 9.28587 11.8156 8.84075 11.4874 8.51256C11.1592 8.18437 10.7141 8 10.25 8H1.75ZM1 9.75C1 9.55109 1.07902 9.36032 1.21967 9.21967C1.36032 9.07902 1.55109 9 1.75 9H10.25C10.4489 9 10.6397 9.07902 10.7803 9.21967C10.921 9.36032 11 9.55109 11 9.75V10C11 10.7365 10.53 11.4745 9.6205 12.053C8.717 12.628 7.4385 13 6 13C4.5615 13 3.283 12.628 2.3795 12.053C1.4695 11.475 1 10.736 1 10V9.75Z" fill="black"/>
</svg>
