<svg width="22" height="20" viewBox="0 0 22 20" fill="none" xmlns="http://www.w3.org/2000/svg">
<path d="M19.0877 10.4901L20.4784 11.6047C20.7352 11.7976 20.9067 12.0669 20.962 12.3638C21.0174 12.6607 20.9527 12.9656 20.7799 13.2233L19.1031 15.8014C18.973 15.9987 18.7873 16.1616 18.5647 16.2735C18.3396 16.3856 18.0867 16.4451 17.8294 16.4466C17.6698 16.4474 17.511 16.426 17.3587 16.3829L15.5789 15.854C15.2671 16.034 14.9431 16.195 14.6067 16.3372L14.2329 17.9613C14.1637 18.26 13.9789 18.527 13.7114 18.7145C13.4405 18.9054 13.1047 19.0061 12.7607 18.9997H9.28879C8.94485 19.0061 8.60901 18.9054 8.33813 18.7145C8.0712 18.5267 7.88695 18.2598 7.81818 17.9613L7.44284 16.3372C7.11088 16.1931 6.78879 16.0313 6.47833 15.8526L4.69237 16.3829C4.54008 16.426 4.38128 16.4474 4.22165 16.4466C3.96484 16.4449 3.71259 16.3854 3.48788 16.2735C3.2655 16.162 3.07978 15.9996 2.94948 15.8027L1.21274 13.2233C1.03219 12.9632 0.963201 12.6528 1.01871 12.3503C1.07421 12.0477 1.2504 11.7738 1.51425 11.5798L2.90333 10V9.50986L1.51271 8.39528C1.25591 8.2024 1.08433 7.93314 1.02902 7.63624C0.973715 7.33935 1.03834 7.03444 1.2112 6.77672L2.94794 4.19865C3.07803 4.0013 3.26377 3.83842 3.48634 3.72651C3.71105 3.61459 3.9633 3.55509 4.22011 3.55344C4.3783 3.54445 4.53708 3.55753 4.69083 3.5922L6.44141 4.14603C6.7542 3.96604 7.07826 3.80497 7.41361 3.66282L7.78896 2.03872C7.85773 1.74016 8.04197 1.47325 8.3089 1.28551C8.57978 1.09464 8.91562 0.993881 9.25957 1.00029H12.7023C13.0462 0.993881 13.3821 1.09464 13.6529 1.28551C13.9221 1.4752 14.1067 1.74242 14.1729 2.03872L14.5482 3.66282C14.8815 3.80589 15.203 3.96742 15.5127 4.14742L17.3002 3.61851C17.4986 3.56042 17.7082 3.54003 17.9158 3.55862C18.1234 3.57721 18.3245 3.63438 18.5063 3.72651C18.7293 3.84004 18.9139 4.00342 19.0447 4.19726L20.7799 6.77672C20.9628 7.03456 21.0353 7.34351 20.9838 7.64593C20.9323 7.94834 20.7603 8.22356 20.4999 8.4202L19.0877 9.50294V10.4901Z" stroke="#A7ABC3" stroke-width="2"/>
<path d="M14.8453 10C14.8453 10.918 14.4401 11.7985 13.7189 12.4476C12.9977 13.0967 12.0195 13.4614 10.9995 13.4614C9.97959 13.4614 9.00142 13.0967 8.2802 12.4476C7.55898 11.7985 7.15381 10.918 7.15381 10C7.15381 9.08197 7.55898 8.20155 8.2802 7.5524C9.00142 6.90326 9.97959 6.53857 10.9995 6.53857C12.0195 6.53857 12.9977 6.90326 13.7189 7.5524C14.4401 8.20155 14.8453 9.08197 14.8453 10Z" stroke="#A7ABC3" stroke-width="2"/>
</svg>
