<svg width="15" height="15" viewBox="0 0 15 15" fill="none" xmlns="http://www.w3.org/2000/svg">
<path d="M13.2144 7.06751C13.2406 7.02505 13.281 6.98398 13.3333 6.95312V7.14003L13.2144 7.06751ZM11.6312 8.60666C12.0827 8.35173 12.4831 8.0188 12.8148 7.62504C12.8147 7.62543 12.8147 7.62582 12.8147 7.6262C12.483 8.01967 12.0827 8.35234 11.6314 8.60707C11.1269 8.89178 10.5721 9.07163 10 9.13789V9.13779C10.572 9.07141 11.1269 8.89146 11.6312 8.60666ZM5.19554 4.33333H5.19552C5.26185 3.7614 5.44172 3.20667 5.72641 2.70237C5.98131 2.25082 6.31423 1.85033 6.708 1.51858C6.7081 1.51857 6.70819 1.51856 6.70829 1.51856C6.31453 1.85023 5.9816 2.25064 5.72668 2.7021C5.44187 3.20647 5.26192 3.76129 5.19554 4.33333ZM7.17628 0.500117C7.18017 0.500213 7.18399 0.500368 7.18773 0.500579C7.21641 0.502466 7.24458 0.509354 7.27094 0.520961C7.27449 0.522526 7.27801 0.524174 7.28148 0.525902L7.26415 0.536373L7.17541 0.590001L7.17628 0.500117ZM2.62088 2.29016C3.61647 1.36168 4.89668 0.734466 6.3163 0.553726C6.31592 0.55401 6.31553 0.554295 6.31515 0.554578C4.93779 0.731929 3.64414 1.33623 2.62088 2.29016ZM2.29016 2.62088C1.25547 3.73077 0.632114 5.15877 0.518762 6.66667H0.518468C0.634072 5.10759 1.28589 3.69774 2.29016 2.62088ZM12.0432 11.7125C12.9969 10.6895 13.6011 9.39622 13.7786 8.01926C13.7789 8.01888 13.7792 8.01849 13.7795 8.01811C13.5985 9.4373 12.9714 10.7171 12.0432 11.7125ZM13.8327 7.14535C13.833 7.14917 13.8331 7.15307 13.8332 7.15705L13.7439 7.15791L13.7977 7.06886L13.8077 7.05234C13.8093 7.05566 13.8109 7.05901 13.8124 7.0624C13.8239 7.08868 13.8308 7.11675 13.8327 7.14535ZM7.66667 13.8146C9.17456 13.7012 10.6026 13.0779 11.7125 12.0432C10.6356 13.0474 9.22574 13.6993 7.66667 13.8149V13.8146ZM2.62088 12.0432C3.73077 13.0779 5.15877 13.7012 6.66667 13.8146V13.8149C5.10759 13.6993 3.69774 13.0474 2.62088 12.0432ZM0.518762 7.66667C0.632114 9.17456 1.25547 10.6026 2.29016 11.7125C1.28589 10.6356 0.634072 9.22574 0.518468 7.66667H0.518762Z" fill="black" stroke="black"/>
</svg>
