<svg width="18" height="17" viewBox="0 0 18 17" fill="none" xmlns="http://www.w3.org/2000/svg">
<path d="M8.25 0C7.28027 0 6.4541 0.632812 6.14062 1.5H0V3H6.14062C6.4541 3.86719 7.28027 4.5 8.25 4.5C9.21973 4.5 10.0459 3.86719 10.3594 3H18V1.5H10.3594C10.0459 0.632812 9.21973 0 8.25 0ZM8.25 1.5C8.67188 1.5 9 1.82812 9 2.25C9 2.67188 8.67188 3 8.25 3C7.82812 3 7.5 2.67188 7.5 2.25C7.5 1.82812 7.82812 1.5 8.25 1.5ZM13.5 6C12.5303 6 11.7041 6.63281 11.3906 7.5H0V9H11.3906C11.7041 9.86719 12.5303 10.5 13.5 10.5C14.4697 10.5 15.2959 9.86719 15.6094 9H18V7.5H15.6094C15.2959 6.63281 14.4697 6 13.5 6ZM13.5 7.5C13.9219 7.5 14.25 7.82812 14.25 8.25C14.25 8.67188 13.9219 9 13.5 9C13.0781 9 12.75 8.67188 12.75 8.25C12.75 7.82812 13.0781 7.5 13.5 7.5ZM5.25 12C4.28027 12 3.4541 12.6328 3.14062 13.5H0V15H3.14062C3.4541 15.8672 4.28027 16.5 5.25 16.5C6.21973 16.5 7.0459 15.8672 7.35938 15H18V13.5H7.35938C7.0459 12.6328 6.21973 12 5.25 12ZM5.25 13.5C5.67188 13.5 6 13.8281 6 14.25C6 14.6719 5.67188 15 5.25 15C4.82812 15 4.5 14.6719 4.5 14.25C4.5 13.8281 4.82812 13.5 5.25 13.5Z" fill="black"/>
</svg>
