<svg width="22" height="24" viewBox="0 0 22 24" fill="none" xmlns="http://www.w3.org/2000/svg">
<path d="M1 11.7039C1 9.84265 1 8.91203 1.39209 8.094C1.78418 7.27598 2.52052 6.67034 3.99322 5.45906L5.42179 4.28407C8.08367 2.09469 9.41461 1 11 1C12.5854 1 13.9163 2.09469 16.5782 4.28407L18.0068 5.45906C19.4795 6.67034 20.2158 7.27598 20.6079 8.094C21 8.91203 21 9.84265 21 11.7039V17.5167C21 20.1016 21 21.394 20.1632 22.197C19.3263 23 17.9795 23 15.2857 23H6.71429C4.02055 23 2.67368 23 1.83684 22.197C1 21.394 1 20.1016 1 17.5167V11.7039Z" stroke="#A7ABC3" stroke-width="2"/>
<path d="M14.5716 22.9998V15.7749C14.5716 15.2226 14.1239 14.7749 13.5716 14.7749H8.42871C7.87643 14.7749 7.42871 15.2226 7.42871 15.7749V22.9998" stroke="#A7ABC3" stroke-width="2" stroke-linecap="round" stroke-linejoin="round"/>
</svg>
