<svg width="20" height="22" viewBox="0 0 20 22" fill="none" xmlns="http://www.w3.org/2000/svg">
<path fill-rule="evenodd" clip-rule="evenodd" d="M0.392088 7.094C0 7.91203 0 8.84265 0 10.7039V16.5167C0 19.1016 0 20.394 0.836838 21.197C1.64357 21.9711 2.92428 21.999 5.42871 22V15.146C5.42871 13.7981 6.55531 12.7752 7.85728 12.7752H12.143C13.445 12.7752 14.5716 13.7981 14.5716 15.146V22C17.0758 21.999 18.3565 21.9711 19.1632 21.197C20 20.394 20 19.1016 20 16.5167V10.7039C20 8.84265 20 7.91203 19.6079 7.094C19.2158 6.27598 18.4795 5.67034 17.0068 4.45906L15.5782 3.28407C12.9163 1.09469 11.5854 0 10 0C8.41461 0 7.08367 1.09469 4.42179 3.28407L4.42179 3.28407L2.99322 4.45906C1.52052 5.67034 0.784175 6.27598 0.392088 7.094ZM12.5716 22V15.146C12.5716 14.9797 12.419 14.7752 12.143 14.7752H7.85728C7.5813 14.7752 7.42871 14.9797 7.42871 15.146V22H12.5716Z" fill="#31B27F"/>
</svg>
